<?xml version="1.0" encoding="UTF-8"?>
<svg id="Camada_2" data-name="Camada 2" xmlns="http://www.w3.org/2000/svg" viewBox="0 0 394.77 389.34">
  <defs>
    <style>
      .cls-1 {
        fill: #141414;
      }
    </style>
  </defs>
  <g id="Símbolo_da_marca_monocromático_preto" data-name="Símbolo da marca monocromático preto">
    <path class="cls-1" d="m394.77,366.55V22.75c0-9.17-5.5-17.44-13.96-20.98-8.46-3.54-18.21-1.66-24.74,4.77L6.79,350.34c-8.95,8.81-9.07,23.21-.25,32.16,8.81,8.95,23.21,9.07,32.16.25l82.1-80.81h73.12c1.57,0,2.78.68,3.6,2.01.82,1.33.89,2.72.18,4.12l-24.13,48.25c-3.52,7.05-3.15,15.42.99,22.12,4.14,6.71,11.46,10.79,19.34,10.79l178.11.09h.01c12.56,0,22.74-10.18,22.74-22.73,0-.02,0-.03,0-.05,0,0,0,0,0,0Zm-158.56-86.51c-9.13-14.77-24.94-23.58-42.3-23.58h-26.9l182.28-179.42v266.79s-118.58-.06-118.58-.06l7.68-15.35c7.76-15.53,6.95-33.61-2.17-48.38Z"/>
  </g>
</svg>